<svg width="29" height="24" viewBox="0 0 29 24" fill="none" xmlns="http://www.w3.org/2000/svg">
    <path d="M27.1875 11.1006L27.407 11.1182C27.9024 11.2022 28.2743 11.5652 28.2743 12C28.2743 12.4348 27.9024 12.7978 27.407 12.8818L27.1875 12.8994H1.8125C1.21189 12.8994 0.725708 12.4971 0.725708 12C0.725708 11.5029 1.21189 11.1006 1.8125 11.1006H27.1875Z" fill="#51526C"/>
    <path d="M27.1875 20.1006L27.407 20.1182C27.9024 20.2022 28.2743 20.5652 28.2743 21C28.2743 21.4348 27.9024 21.7978 27.407 21.8818L27.1875 21.8994H1.8125C1.21189 21.8994 0.725708 21.4971 0.725708 21C0.725708 20.5029 1.21189 20.1006 1.8125 20.1006H27.1875Z" fill="#51526C"/>
    <path d="M27.1875 2.10059L27.407 2.11816C27.9024 2.20217 28.2743 2.56516 28.2743 3C28.2743 3.43484 27.9024 3.79783 27.407 3.88184L27.1875 3.89941H1.8125C1.21189 3.89941 0.725708 3.49706 0.725708 3C0.725708 2.50294 1.21189 2.10059 1.8125 2.10059H27.1875Z" fill="#51526C"/>
</svg>
