<svg width="14" height="14" viewBox="0 0 14 14" fill="none" xmlns="http://www.w3.org/2000/svg">
    <path d="M11.247 10.628C11.2877 10.6686 11.3199 10.7169 11.3419 10.77C11.3639 10.8231 11.3752 10.88 11.3752 10.9375C11.3752 10.995 11.3639 11.0519 11.3419 11.105C11.3199 11.1581 11.2877 11.2064 11.247 11.247C11.2064 11.2877 11.1581 11.3199 11.105 11.3419C11.0519 11.3639 10.995 11.3752 10.9375 11.3752C10.88 11.3752 10.8231 11.3639 10.77 11.3419C10.7169 11.3199 10.6686 11.2877 10.628 11.247L7 7.61851L3.37203 11.247C3.28994 11.3291 3.1786 11.3752 3.0625 11.3752C2.9464 11.3752 2.83506 11.3291 2.75297 11.247C2.67088 11.1649 2.62476 11.0536 2.62476 10.9375C2.62476 10.8214 2.67088 10.7101 2.75297 10.628L6.38148 7L2.75297 3.37203C2.67088 3.28994 2.62476 3.1786 2.62476 3.0625C2.62476 2.9464 2.67088 2.83506 2.75297 2.75297C2.83506 2.67088 2.9464 2.62476 3.0625 2.62476C3.1786 2.62476 3.28994 2.67088 3.37203 2.75297L7 6.38148L10.628 2.75297C10.7101 2.67088 10.8214 2.62476 10.9375 2.62476C11.0536 2.62476 11.1649 2.67088 11.247 2.75297C11.3291 2.83506 11.3752 2.9464 11.3752 3.0625C11.3752 3.1786 11.3291 3.28994 11.247 3.37203L7.61851 7L11.247 10.628Z" fill="#22252C"/>
</svg>
