<svg width="20" height="20" viewBox="0 0 20 20" fill="none" xmlns="http://www.w3.org/2000/svg">
    <rect width="20" height="20" rx="10" fill="#CACBCC"/>
    <path d="M11.2151 13.41C11.1201 13.41 11.0251 13.375 10.9501 13.3C10.8051 13.155 10.8051 12.915 10.9501 12.77L13.7201 10L10.9501 7.23C10.8051 7.085 10.8051 6.845 10.9501 6.7C11.0951 6.555 11.3351 6.555 11.4801 6.7L14.5151 9.735C14.6601 9.88 14.6601 10.12 14.5151 10.265L11.4801 13.3C11.4051 13.375 11.3101 13.41 11.2151 13.41Z" fill="#FEFEFE"/>
    <path d="M14.165 10.375H5.75C5.545 10.375 5.375 10.205 5.375 10C5.375 9.795 5.545 9.625 5.75 9.625H14.165C14.37 9.625 14.54 9.795 14.54 10C14.54 10.205 14.37 10.375 14.165 10.375Z" fill="#FEFEFE"/>
</svg>
