<svg width="25" height="25" viewBox="0 0 25 25" fill="none" xmlns="http://www.w3.org/2000/svg">
    <path d="M12.5 22.15C12.19 22.15 11.89 22.11 11.64 22.02C7.82 20.71 1.75 16.06 1.75 9.19C1.75 5.69 4.58 2.85 8.06 2.85C9.75 2.85 11.33 3.51 12.5 4.69C13.67 3.51 15.25 2.85 16.94 2.85C20.42 2.85 23.25 5.7 23.25 9.19C23.25 16.07 17.18 20.71 13.36 22.02C13.11 22.11 12.81 22.15 12.5 22.15ZM8.06 4.35C5.41 4.35 3.25 6.52 3.25 9.19C3.25 16.02 9.82 19.82 12.13 20.61C12.31 20.67 12.7 20.67 12.88 20.61C15.18 19.82 21.76 16.03 21.76 9.19C21.76 6.52 19.6 4.35 16.95 4.35C15.43 4.35 14.02 5.06 13.11 6.29C12.83 6.67 12.19 6.67 11.91 6.29C10.98 5.05 9.58 4.35 8.06 4.35Z" fill="#22252C"/>
</svg>
