<svg width="24" height="20" viewBox="0 0 24 20" fill="none" xmlns="http://www.w3.org/2000/svg">
    <path d="M22.5 9.25049L22.6816 9.26514C23.0916 9.33514 23.3994 9.63763 23.3994 10C23.3994 10.3624 23.0916 10.6649 22.6816 10.7349L22.5 10.7495H1.5C1.00294 10.7495 0.600586 10.4142 0.600586 10C0.600586 9.58579 1.00294 9.25049 1.5 9.25049H22.5Z" fill="#51526C"/>
    <path d="M22.5 16.7505L22.6816 16.7651C23.0916 16.8351 23.3994 17.1376 23.3994 17.5C23.3994 17.8624 23.0916 18.1649 22.6816 18.2349L22.5 18.2495H1.5C1.00294 18.2495 0.600586 17.9142 0.600586 17.5C0.600586 17.0858 1.00294 16.7505 1.5 16.7505H22.5Z" fill="#51526C"/>
    <path d="M22.5 1.75049L22.6816 1.76514C23.0916 1.83514 23.3994 2.13763 23.3994 2.5C23.3994 2.86237 23.0916 3.16486 22.6816 3.23486L22.5 3.24951H1.5C1.00294 3.24951 0.600586 2.91421 0.600586 2.5C0.600586 2.08579 1.00294 1.75049 1.5 1.75049H22.5Z" fill="#51526C"/>
</svg>
