<svg width="21" height="20" viewBox="0 0 21 20" fill="none" xmlns="http://www.w3.org/2000/svg">
    <path d="M10.0834 18.125C5.37502 18.125 1.54169 14.2917 1.54169 9.58333C1.54169 4.875 5.37502 1.04166 10.0834 1.04166C14.7917 1.04166 18.625 4.875 18.625 9.58333C18.625 14.2917 14.7917 18.125 10.0834 18.125ZM10.0834 2.29166C6.05835 2.29166 2.79169 5.56666 2.79169 9.58333C2.79169 13.6 6.05835 16.875 10.0834 16.875C14.1084 16.875 17.375 13.6 17.375 9.58333C17.375 5.56666 14.1084 2.29166 10.0834 2.29166Z" fill="#FEFEFE"/>
    <path d="M18.8333 18.9583C18.675 18.9583 18.5167 18.9 18.3917 18.775L16.725 17.1083C16.4833 16.8667 16.4833 16.4667 16.725 16.225C16.9667 15.9833 17.3667 15.9833 17.6083 16.225L19.275 17.8917C19.5167 18.1333 19.5167 18.5333 19.275 18.775C19.15 18.9 18.9917 18.9583 18.8333 18.9583Z" fill="#FEFEFE"/>
</svg>
