<svg width="25" height="25" viewBox="0 0 25 25" fill="none" xmlns="http://www.w3.org/2000/svg">
    <path d="M12.5 13.25C9.33 13.25 6.75 10.67 6.75 7.5C6.75 4.33 9.33 1.75 12.5 1.75C15.67 1.75 18.25 4.33 18.25 7.5C18.25 10.67 15.67 13.25 12.5 13.25ZM12.5 3.25C10.16 3.25 8.25 5.16 8.25 7.5C8.25 9.84 10.16 11.75 12.5 11.75C14.84 11.75 16.75 9.84 16.75 7.5C16.75 5.16 14.84 3.25 12.5 3.25Z" fill="#22252C"/>
    <path d="M21.0901 23.25C20.6801 23.25 20.3401 22.91 20.3401 22.5C20.3401 19.05 16.8202 16.25 12.5002 16.25C8.18015 16.25 4.66016 19.05 4.66016 22.5C4.66016 22.91 4.32016 23.25 3.91016 23.25C3.50016 23.25 3.16016 22.91 3.16016 22.5C3.16016 18.23 7.35015 14.75 12.5002 14.75C17.6502 14.75 21.8401 18.23 21.8401 22.5C21.8401 22.91 21.5001 23.25 21.0901 23.25Z" fill="#22252C"/>
</svg>
